<svg
        width="1024"
        height="1024"
        viewBox="0 0 270.93334 270.93334"
        version="1.1"
        xml:space="preserve"
        xmlns="http://www.w3.org/2000/svg"
>
        <g
                fill="none"
                fill-rule="evenodd"
                id="g2"
                transform="matrix(0.82098379,0,0,0.82098379,7.6637096,10.102442)">
            <path
                    d="M 269.352,91.664 H 226.916 V 80.04 h 70.577 V 14.31 H 283.199 V 0 H 168.4 v 14.309 h -13.848 v 91.664 H 140.26 v 13.861 h -20.994 v 14.309 H 98.271 v 14.308 H 83.977 v 13.862 H 58.069 V 148.004 H 44.222 V 134.143 H 29.928 v -28.17 h -16.08 v 86.746 h 13.847 v 14.308 h 14.293 v 13.862 h 13.848 v 14.308 H 70.13 v 13.862 h 13.847 v 56.34 h 30.375 V 289.3 h -13.848 v -12.07 h 13.848 v -13.862 h 14.294 V 249.06 h 11.613 v 14.308 h 14.294 V 305.4 h 30.375 v -16.1 h -14.294 v -54.104 h 14.294 V 220.89 h 13.847 v -21.016 h 14.294 v -49.186 h 11.614 V 164.55 H 241.21 V 134.144 H 213.07 V 108.21 h 56.282 z"
                    fill="#666666"
                    id="path1"/>
            <path
                    d="m 182.248,20.569 h 16.974 V 37.56 h -16.974 z"
                    fill="#ffffff"
                    id="path2"/>
        </g>
</svg>
